<svg xmlns="http://www.w3.org/2000/svg" width="160" height="72" fill="none"><g clip-path="url(#clip0_165_24616)"><g clip-path="url(#clip1_165_24616)"><g clip-path="url(#clip2_165_24616)" fill="#0F62F9"><path d="M31.457 33.319a3.043 3.043 0 0 0-3.044-3.043h-4.058v-4.112a3.028 3.028 0 0 0-6.055 0v4.112h-4.06a3.043 3.043 0 0 0 0 6.087h4.06v4.11a3.028 3.028 0 0 0 6.055 0v-4.11h4.058a3.043 3.043 0 0 0 3.044-3.044z"></path><path d="M39.76 30.104c-.608 0-1.185-.36-1.438-.96a18.795 18.795 0 0 0-2.434-4.18C32.34 20.36 27.002 17.72 21.24 17.72c-5.709 0-11.016 2.6-14.562 7.133a18.85 18.85 0 0 0-2.36 3.92 1.554 1.554 0 0 1-2.066.79 1.586 1.586 0 0 1-.78-2.089 21.993 21.993 0 0 1 2.757-4.58c4.141-5.295 10.342-8.331 17.01-8.331 6.733 0 12.97 3.084 17.112 8.46a21.958 21.958 0 0 1 2.844 4.883 1.585 1.585 0 0 1-.825 2.07c-.2.087-.407.128-.61.128zM14.12 56.632s5.486-4.189-1.107-13.13c0 0-2.243-2.33-3.72-3.856-.396-.41-.957-.601-1.46-.336a1.366 1.366 0 0 0-.405 2.08l1.787 2.138S.71 42.056 2.793 32.606a1.168 1.168 0 0 0-.716-1.341l-.029-.012a1.153 1.153 0 0 0-1.533.804c-1.19 4.78-1.58 17.614 13.606 24.575zm14.411 0s-5.486-4.189 1.107-13.13c0 0 2.243-2.33 3.72-3.856.396-.41.957-.601 1.46-.336.762.403.96 1.415.405 2.08l-1.786 2.138s8.504-1.472 6.422-10.922a1.168 1.168 0 0 1 .716-1.341l.029-.012a1.153 1.153 0 0 1 1.533.804c1.19 4.78 1.58 17.614-13.606 24.575z"></path></g><path d="M50.94 25.078h5.15l5.12 15.358 5.264-15.358h5.006v20.573h-3.941V31.936l-4.69 13.715h-3.336l-4.718-13.686V45.65H50.94V25.078zm36.527 15.877c-.269 1.69-.95 2.977-2.043 3.86-1.074.865-2.646 1.298-4.718 1.298-2.493 0-4.372-.692-5.638-2.075-1.246-1.383-1.87-3.342-1.87-5.878 0-1.268.183-2.392.547-3.371.364-1 .873-1.845 1.524-2.536a6.439 6.439 0 0 1 2.388-1.556c.92-.365 1.937-.548 3.05-.548 2.3 0 4.027.663 5.178 1.989 1.17 1.325 1.754 3.112 1.754 5.36v1.613H77.226c.038 1.21.345 2.16.92 2.852.576.673 1.439 1.009 2.59 1.009 1.591 0 2.53-.672 2.818-2.017h3.913zm-3.711-4.495c0-1.038-.26-1.844-.777-2.42-.498-.577-1.285-.865-2.359-.865-.537 0-1.007.086-1.41.26a3.046 3.046 0 0 0-1.035.72 3.14 3.14 0 0 0-.633 1.037c-.153.384-.24.807-.259 1.268h6.473zm5.272-11.382h4.027v20.573h-4.028V25.078zm15.701 18.672a7.794 7.794 0 0 1-2.014 1.642c-.728.423-1.678.634-2.848.634a7.075 7.075 0 0 1-1.927-.26 4.573 4.573 0 0 1-1.582-.806 4.045 4.045 0 0 1-1.065-1.383c-.268-.576-.402-1.258-.402-2.046 0-1.037.23-1.882.69-2.536a4.69 4.69 0 0 1 1.813-1.527 9.088 9.088 0 0 1 2.502-.778c.94-.153 1.889-.25 2.848-.288l1.928-.086v-.75c0-.922-.259-1.555-.777-1.901-.499-.346-1.093-.519-1.784-.519-1.592 0-2.502.605-2.733 1.815l-3.682-.345c.269-1.575.96-2.709 2.071-3.4 1.113-.711 2.609-1.067 4.488-1.067 1.151 0 2.129.145 2.934.433.806.269 1.448.662 1.928 1.181a4.427 4.427 0 0 1 1.064 1.902c.23.73.345 1.556.345 2.478v9.508h-3.797V43.75zm-.086-4.812l-1.784.086c-.844.039-1.524.125-2.042.26-.518.134-.92.307-1.208.518-.269.192-.451.423-.547.692a2.646 2.646 0 0 0-.144.893c0 .5.173.893.518 1.181.345.289.825.433 1.438.433 1.036 0 1.88-.24 2.532-.72.364-.27.661-.606.892-1.01.23-.422.345-.94.345-1.555v-.778zm5.683-8.328h4.372l2.1 9.97 2.877-9.854h3.509l2.733 9.854 2.1-9.97h4.2l-4.372 15.041h-3.913l-2.675-9.912-2.704 9.913h-3.855l-4.372-15.042zM147.6 40.956c-.269 1.69-.95 2.977-2.043 3.86-1.074.865-2.646 1.298-4.718 1.298-2.493 0-4.372-.692-5.638-2.075-1.247-1.383-1.87-3.342-1.87-5.878 0-1.268.182-2.392.547-3.371.364-1 .872-1.845 1.524-2.536a6.441 6.441 0 0 1 2.388-1.556c.921-.365 1.937-.548 3.049-.548 2.302 0 4.028.663 5.178 1.989 1.17 1.325 1.755 3.112 1.755 5.36v1.613h-10.414c.039 1.21.346 2.16.921 2.852.575.673 1.438 1.009 2.589 1.009 1.592 0 2.532-.672 2.819-2.017h3.913zm-3.711-4.495c0-1.038-.259-1.844-.777-2.42-.499-.577-1.285-.865-2.359-.865-.537 0-1.007.086-1.41.26a3.044 3.044 0 0 0-1.035.72c-.269.288-.48.633-.633 1.037-.154.384-.24.807-.259 1.268h6.473zm6.1-11.382h4.027v20.573h-4.027V25.078zm5.984 0H160v20.573h-4.027V25.078z" fill="#fff"></path></g></g><defs><clipPath id="clip0_165_24616"><path fill="#fff" d="M0 0H160V72H0z"></path></clipPath><clipPath id="clip1_165_24616"><path fill="#fff" transform="translate(0 14)" d="M0 0H160V43H0z"></path></clipPath><clipPath id="clip2_165_24616"><path fill="#fff" transform="translate(0 14.563)" d="M0 0H42.653V42.069H0z"></path></clipPath></defs></svg>