<svg fill="none" height="72" width="160" xmlns="http://www.w3.org/2000/svg" xmlns:xlink="http://www.w3.org/1999/xlink"><clipPath id="a"><path d="m0 0h160v72h-160z"/></clipPath><clipPath id="b"><path d="m0 0h160v43h-160z" transform="translate(0 14)"/></clipPath><clipPath id="c"><path d="m0 0h42.653v42.069h-42.653z" transform="translate(0 14.563)"/></clipPath><g clip-path="url(#a)"><g clip-path="url(#b)"><g clip-path="url(#c)" fill="#0f62f9"><path d="m31.457 33.319a3.043 3.043 0 0 0 -3.043-3.043h-4.059v-4.112a3.028 3.028 0 0 0 -6.055 0v4.112h-4.06a3.043 3.043 0 0 0 0 6.086h4.06v4.112a3.028 3.028 0 0 0 6.055 0v-4.112h4.06a3.043 3.043 0 0 0 3.043-3.043z"/><path d="m39.759 30.104c-.608 0-1.185-.36-1.438-.96a18.79 18.79 0 0 0 -2.434-4.18c-3.547-4.604-8.887-7.244-14.648-7.244-5.709 0-11.016 2.6-14.562 7.133a18.85 18.85 0 0 0 -2.36 3.92 1.554 1.554 0 0 1 -2.066.79 1.586 1.586 0 0 1 -.78-2.089 21.993 21.993 0 0 1 2.757-4.58c4.141-5.295 10.342-8.331 17.01-8.331 6.733 0 12.97 3.084 17.112 8.46a21.954 21.954 0 0 1 2.844 4.883 1.585 1.585 0 0 1 -.825 2.07c-.2.087-.407.128-.61.128zm-25.639 26.528s5.486-4.189-1.107-13.13c0 0-2.243-2.33-3.72-3.856-.396-.41-.957-.601-1.46-.336a1.366 1.366 0 0 0 -.405 2.08l1.787 2.138s-8.505-1.472-6.422-10.922a1.168 1.168 0 0 0 -.716-1.341l-.029-.012a1.153 1.153 0 0 0 -1.533.804c-1.19 4.78-1.58 17.614 13.606 24.575zm14.412 0s-5.486-4.189 1.107-13.13c0 0 2.243-2.33 3.72-3.856.395-.41.957-.601 1.46-.336.762.403.96 1.415.405 2.08l-1.787 2.138s8.505-1.472 6.423-10.922a1.168 1.168 0 0 1 .716-1.341l.029-.012a1.153 1.153 0 0 1 1.533.804c1.19 4.78 1.58 17.614-13.606 24.575z"/></g><path d="m50.94 25.078h5.149l5.12 15.358 5.265-15.358h5.005v20.573h-3.941v-13.715l-4.689 13.714h-3.337l-4.718-13.686v13.686h-3.854zm36.526 15.877c-.268 1.69-.95 2.977-2.042 3.86-1.074.865-2.647 1.298-4.718 1.298-2.493 0-4.373-.692-5.639-2.075-1.246-1.383-1.87-3.342-1.87-5.878 0-1.268.183-2.392.547-3.371.365-1 .873-1.845 1.525-2.536a6.437 6.437 0 0 1 2.387-1.556c.921-.365 1.938-.548 3.05-.548 2.301 0 4.027.663 5.178 1.989 1.17 1.325 1.755 3.112 1.755 5.36v1.613h-10.414c.038 1.21.345 2.16.92 2.852.576.673 1.439 1.009 2.59 1.009 1.591 0 2.531-.672 2.819-2.017zm-3.71-4.495c0-1.038-.26-1.844-.778-2.42-.498-.577-1.285-.865-2.358-.865-.538 0-1.007.086-1.41.26a3.046 3.046 0 0 0 -1.036.72c-.268.288-.48.633-.633 1.037-.153.384-.24.807-.258 1.268h6.472zm5.27-11.382h4.028v20.573h-4.027v-20.573zm15.702 18.672a7.79 7.79 0 0 1 -2.013 1.642c-.729.423-1.678.634-2.848.634a7.075 7.075 0 0 1 -1.928-.26 4.573 4.573 0 0 1 -1.582-.806 4.044 4.044 0 0 1 -1.064-1.383c-.269-.576-.403-1.258-.403-2.046 0-1.037.23-1.882.69-2.536a4.69 4.69 0 0 1 1.813-1.527 9.09 9.09 0 0 1 2.502-.778c.94-.153 1.889-.25 2.848-.288l1.928-.086v-.75c0-.922-.259-1.555-.777-1.901-.499-.346-1.093-.519-1.783-.519-1.592 0-2.503.605-2.733 1.815l-3.683-.345c.269-1.575.96-2.709 2.072-3.4 1.112-.711 2.608-1.067 4.487-1.067 1.151 0 2.129.145 2.935.433.805.269 1.448.662 1.927 1.181.499.519.853 1.153 1.064 1.902.23.73.346 1.556.346 2.478v9.508h-3.798zm-.086-4.812-1.784.086c-.843.039-1.524.125-2.042.26-.518.134-.92.307-1.208.518-.269.192-.45.423-.547.692a2.644 2.644 0 0 0 -.144.893c0 .5.173.893.518 1.181.345.289.825.433 1.439.433 1.035 0 1.879-.24 2.531-.72.364-.27.662-.606.892-1.01.23-.422.345-.94.345-1.555zm5.683-8.328h4.372l2.1 9.97 2.877-9.854h3.51l2.733 9.854 2.1-9.97h4.2l-4.373 15.041h-3.912l-2.676-9.912-2.704 9.913h-3.855zm37.274 10.345c-.269 1.69-.95 2.977-2.043 3.86-1.074.865-2.646 1.298-4.717 1.298-2.494 0-4.373-.692-5.639-2.075-1.246-1.383-1.87-3.342-1.87-5.878 0-1.268.183-2.392.547-3.371.364-1 .873-1.845 1.525-2.536a6.438 6.438 0 0 1 2.387-1.556c.921-.365 1.937-.548 3.05-.548 2.301 0 4.027.663 5.178 1.989 1.169 1.325 1.754 3.112 1.754 5.36v1.613h-10.413c.038 1.21.345 2.16.92 2.852.576.673 1.439 1.009 2.589 1.009 1.592 0 2.532-.672 2.819-2.017zm-3.711-4.495c0-1.038-.259-1.844-.777-2.42-.498-.577-1.285-.865-2.359-.865-.537 0-1.007.086-1.409.26a3.048 3.048 0 0 0 -1.036.72 3.157 3.157 0 0 0 -.633 1.037 3.83 3.83 0 0 0 -.259 1.268zm6.1-11.382h4.028v20.573h-4.028zm5.984 0h4.027v20.573h-4.027z" fill="#161616"/></g></g></svg>