<?xml version="1.0" encoding="utf-8"?>
<!-- Generator: Adobe Illustrator 16.0.4, SVG Export Plug-In . SVG Version: 6.00 Build 0)  -->
<!DOCTYPE svg PUBLIC "-//W3C//DTD SVG 1.1//EN" "http://www.w3.org/Graphics/SVG/1.1/DTD/svg11.dtd">
<svg version="1.1" id="Layer_1" xmlns="http://www.w3.org/2000/svg" xmlns:xlink="http://www.w3.org/1999/xlink" x="0px" y="0px"
	 width="300px" height="85.9px" viewBox="-37 -109.3 300 85.9" enable-background="new -37 -109.3 300 85.9" xml:space="preserve">
<g>
	
		<rect x="-37.8" y="-92.7" transform="matrix(0.9247 0.3808 -0.3808 0.9247 -36.5177 -0.1314)" fill="#EEC3AF" width="39.7" height="0.7"/>
	<rect x="-6.4" y="-86" transform="matrix(0.929 0.37 -0.37 0.929 -25.8077 -2.6339)" fill="#EEC3AF" width="0.7" height="34.9"/>
	
		<rect x="-15" y="-97" transform="matrix(0.2091 0.9779 -0.9779 0.2091 -91.3646 -50.1386)" fill="#EEC3AF" width="0.7" height="30.9"/>
	
		<rect x="-11.8" y="-90.1" transform="matrix(0.6731 0.7396 -0.7396 0.6731 -58.4595 -15.7252)" fill="#EEC3AF" width="0.7" height="32.1"/>
	
		<rect x="18.5" y="-112.2" transform="matrix(0.3802 0.9249 -0.9249 0.3802 -73.7615 -74.6462)" fill="#EEC3AF" width="0.7" height="39.7"/>
	
		<rect x="-10.5" y="-68.9" transform="matrix(0.3714 0.9285 -0.9285 0.3714 -59.3236 -49.5473)" fill="#EEC3AF" width="34.9" height="0.7"/>
	
		<rect x="0.1" y="-81.9" transform="matrix(0.9778 0.2095 -0.2095 0.9778 -16.7422 -5.0739)" fill="#EEC3AF" width="30.9" height="0.7"/>
	
		<rect x="-3.7" y="-74.3" transform="matrix(0.7399 0.6727 -0.6727 0.7399 -46.5625 -27.5376)" fill="#EEC3AF" width="32.1" height="0.7"/>
	<path fill="#EEC3AF" d="M-29.3-78.8l-6.2-20.8l18.5-8.2L-0.5-85l-18.6,10.3L-29.3-78.8z M-16.6-109.3l-20.4,9.1l6.7,22.4l11.4,4.5
		L1.4-84.6L-16.6-109.3z"/>
	<path fill="#EEC3AF" d="M-12.6-51.6L-24.1-63l4.6-11.4L1.2-85.9l-4.6,29.7L-12.6-51.6z M-22.6-63.3l10.2,10.2l8-4l4.1-26.5
		l-18.2,10.1L-22.6-63.3z"/>
	<path fill="#EEC3AF" d="M1.4-85l16.6-22.8l18.5,8.2l-6.2,20.8l-10.3,4.1L1.4-85z M17.5-109.3l-18,24.7l20.3,11.3l11.4-4.5l6.7-22.4
		L17.5-109.3z"/>
	<path fill="#EEC3AF" d="M13.5-51.6l-9.3-4.7l-4.6-29.7l20.7,11.5L24.9-63L13.5-51.6z M5.3-57.1l8,4l10.2-10.2l-4.1-10.2L1.2-83.7
		L5.3-57.1z"/>
	<polygon fill="#EEC3AF" points="0.4,-66.6 -2.3,-69.6 -1.4,-70.4 0.4,-68.4 2.3,-70.4 3.2,-69.6 	"/>
	<rect x="-5.4" y="-93.5" fill="#EEC3AF" width="11.7" height="1.2"/>
	
		<rect x="73.8" y="-40.7" transform="matrix(-0.9247 -0.3807 0.3807 -0.9247 195.5971 -42.0436)" fill="#EEC3AF" width="39.7" height="0.7"/>
	
		<rect x="81.4" y="-81.6" transform="matrix(-0.9283 -0.3719 0.3719 -0.9283 181.4953 -93.2858)" fill="#EEC3AF" width="0.7" height="34.9"/>
	
		<rect x="90.1" y="-66.6" transform="matrix(-0.2106 -0.9776 0.9776 -0.2106 159.4595 26.4225)" fill="#EEC3AF" width="0.7" height="30.9"/>
	
		<rect x="86.8" y="-74.8" transform="matrix(-0.672 -0.7406 0.7406 -0.672 189.2249 -33.6688)" fill="#EEC3AF" width="0.7" height="32.1"/>
	
		<rect x="56.6" y="-60.2" transform="matrix(-0.3822 -0.9241 0.9241 -0.3822 115.9439 -3.2225)" fill="#EEC3AF" width="0.7" height="39.7"/>
	
		<rect x="51.3" y="-64.5" transform="matrix(-0.3714 -0.9285 0.9285 -0.3714 153.8846 -24.1031)" fill="#EEC3AF" width="34.9" height="0.7"/>
	
		<rect x="44.7" y="-51.5" transform="matrix(-0.9778 -0.2095 0.2095 -0.9778 129.6623 -88.6125)" fill="#EEC3AF" width="30.9" height="0.7"/>
	
		<rect x="47.3" y="-59.1" transform="matrix(-0.74 -0.6726 0.6726 -0.74 149.7898 -59.5728)" fill="#EEC3AF" width="32.1" height="0.7"/>
	<path fill="#EEC3AF" d="M94.7-59.4l11.4,4.5l6.7,22.4l-20.4,9.1l-18-24.7L94.7-59.4z M105-54l-10.3-4.1L76.2-47.7l16.6,22.8
		l18.5-8.2L105-54z"/>
	<path fill="#EEC3AF" d="M88.4-81.1l11.4,11.4l-4.6,11.4L74.5-46.8L79-76.4L88.4-81.1z M98.3-69.4L88.1-79.6l-8,4l-4.1,26.5
		l18.2-10.1L98.3-69.4z"/>
	<path fill="#EEC3AF" d="M55.9-59.4l20.3,11.3l-18,24.7l-20.4-9.1l6.7-22.4L55.9-59.4z M74.4-47.7L55.8-58.1L45.5-54l-6.2,20.8
		l18.5,8.2L74.4-47.7z"/>
	<path fill="#EEC3AF" d="M62.2-81.1l9.3,4.7l4.6,29.7L55.3-58.3l-4.6-11.4L62.2-81.1z M70.4-75.6l-8-4L52.2-69.4l4.1,10.2l18.2,10.1
		L70.4-75.6z"/>
	<polygon fill="#EEC3AF" points="75.3,-66.1 78,-63.1 77.1,-62.3 75.3,-64.3 73.4,-62.3 72.5,-63.1 	"/>
	<rect x="69.4" y="-40.5" fill="#EEC3AF" width="11.7" height="1.2"/>
	
		<rect x="112.4" y="-92.7" transform="matrix(0.9247 0.3808 -0.3808 0.9247 -25.2042 -57.3213)" fill="#EEC3AF" width="39.7" height="0.7"/>
	
		<rect x="143.8" y="-86" transform="matrix(0.9288 0.3705 -0.3705 0.9288 -15.1519 -58.2968)" fill="#EEC3AF" width="0.7" height="34.9"/>
	
		<rect x="135.2" y="-97" transform="matrix(0.2098 0.9777 -0.9777 0.2098 27.3411 -196.9403)" fill="#EEC3AF" width="0.7" height="30.9"/>
	
		<rect x="138.4" y="-90.1" transform="matrix(0.6723 0.7403 -0.7403 0.6723 -9.3034 -126.9617)" fill="#EEC3AF" width="0.7" height="32.1"/>
	
		<rect x="168.7" y="-112.2" transform="matrix(0.3815 0.9244 -0.9244 0.3815 19.1651 -213.3655)" fill="#EEC3AF" width="0.7" height="39.7"/>
	
		<rect x="139.7" y="-68.9" transform="matrix(0.3714 0.9285 -0.9285 0.3714 35.0948 -189.0068)" fill="#EEC3AF" width="34.9" height="0.7"/>
	
		<rect x="150.3" y="-81.9" transform="matrix(0.9778 0.2095 -0.2095 0.9778 -13.4078 -36.5437)" fill="#EEC3AF" width="30.9" height="0.7"/>
	
		<rect x="146.5" y="-74.3" transform="matrix(0.7399 0.6727 -0.6727 0.7399 -7.5033 -128.5706)" fill="#EEC3AF" width="32.1" height="0.7"/>
	<path fill="#EEC3AF" d="M120.9-78.8l-6.2-20.8l18.5-8.2L149.7-85l-18.6,10.3L120.9-78.8z M133.6-109.3l-20.4,9.1l6.7,22.4l11.4,4.5
		l20.3-11.3L133.6-109.3z"/>
	<path fill="#EEC3AF" d="M137.6-51.6L126.1-63l4.6-11.4l20.7-11.5l-4.6,29.7L137.6-51.6z M127.6-63.3l10.2,10.2l8-4l4.1-26.5
		l-18.2,10.1L127.6-63.3z"/>
	<path fill="#EEC3AF" d="M151.5-85l16.6-22.8l18.5,8.2l-6.2,20.8l-10.3,4.1L151.5-85z M167.7-109.3l-18,24.7l20.3,11.3l11.4-4.5
		l6.7-22.4L167.7-109.3z"/>
	<path fill="#EEC3AF" d="M163.7-51.6l-9.3-4.7l-4.6-29.7l20.7,11.5l4.6,11.4L163.7-51.6z M155.5-57.1l8,4l10.2-10.2l-4.1-10.2
		l-18.2-10.1L155.5-57.1z"/>
	<polygon fill="#EEC3AF" points="150.6,-66.6 147.9,-69.6 148.8,-70.4 150.6,-68.4 152.5,-70.4 153.4,-69.6 	"/>
	<rect x="144.8" y="-93.5" fill="#EEC3AF" width="11.7" height="1.2"/>
	
		<rect x="224" y="-40.7" transform="matrix(-0.9247 -0.3807 0.3807 -0.9247 484.6844 15.1419)" fill="#EEC3AF" width="39.7" height="0.7"/>
	
		<rect x="231.6" y="-81.6" transform="matrix(-0.9281 -0.3724 0.3724 -0.9281 471.1066 -37.3018)" fill="#EEC3AF" width="0.7" height="34.9"/>
	
		<rect x="240.3" y="-66.6" transform="matrix(-0.2106 -0.9776 0.9776 -0.2106 341.2834 173.254)" fill="#EEC3AF" width="0.7" height="30.9"/>
	
		<rect x="237" y="-74.8" transform="matrix(-0.6724 -0.7402 0.7402 -0.6724 440.428 77.4537)" fill="#EEC3AF" width="0.7" height="32.1"/>
	
		<rect x="206.8" y="-60.2" transform="matrix(-0.3798 -0.9251 0.9251 -0.3798 323.0877 135.8805)" fill="#EEC3AF" width="0.7" height="39.7"/>
	
		<rect x="201.5" y="-64.5" transform="matrix(-0.3714 -0.9285 0.9285 -0.3714 359.8613 115.3576)" fill="#EEC3AF" width="34.9" height="0.7"/>
	
		<rect x="194.9" y="-51.5" transform="matrix(-0.9778 -0.2095 0.2095 -0.9778 426.7255 -57.1403)" fill="#EEC3AF" width="30.9" height="0.7"/>
	
		<rect x="197.5" y="-59.1" transform="matrix(-0.74 -0.6727 0.6727 -0.74 411.1292 41.4598)" fill="#EEC3AF" width="32.1" height="0.7"/>
	<path fill="#EEC3AF" d="M244.9-59.4l11.4,4.5l6.7,22.4l-20.4,9.1l-18-24.7L244.9-59.4z M255.2-54L245-58.1l-18.6,10.3L243-24.9
		l18.5-8.2L255.2-54z"/>
	<path fill="#EEC3AF" d="M238.6-81.1L250-69.7l-4.6,11.4l-20.7,11.5l4.6-29.7L238.6-81.1z M248.5-69.4l-10.2-10.2l-8,4l-4.1,26.5
		l18.2-10.1L248.5-69.4z"/>
	<path fill="#EEC3AF" d="M206.1-59.4l20.3,11.3l-18,24.7L188-32.5l6.7-22.4L206.1-59.4z M224.6-47.7L206-58.1L195.7-54l-6.2,20.8
		l18.5,8.2L224.6-47.7z"/>
	<path fill="#EEC3AF" d="M212.4-81.1l9.3,4.7l4.6,29.7l-20.7-11.5L201-69.7L212.4-81.1z M220.6-75.6l-8-4l-10.2,10.2l4.1,10.2
		l18.2,10.1L220.6-75.6z"/>
	<polygon fill="#EEC3AF" points="225.5,-66.1 228.2,-63.1 227.3,-62.3 225.5,-64.3 223.6,-62.3 222.7,-63.1 	"/>
	<rect x="219.6" y="-40.5" fill="#EEC3AF" width="11.7" height="1.2"/>
</g>
</svg>
