<?xml version="1.0" encoding="utf-8"?>
<!-- Generator: Adobe Illustrator 16.0.4, SVG Export Plug-In . SVG Version: 6.00 Build 0)  -->
<!DOCTYPE svg PUBLIC "-//W3C//DTD SVG 1.1//EN" "http://www.w3.org/Graphics/SVG/1.1/DTD/svg11.dtd">
<svg version="1.1" id="Layer_1" xmlns="http://www.w3.org/2000/svg" xmlns:xlink="http://www.w3.org/1999/xlink" x="0px" y="0px"
	 width="200px" height="84px" viewBox="0 0 200 84" enable-background="new 0 0 200 84" xml:space="preserve">
<polygon fill="none" points="171.8,45.2 152,34.2 176.2,56.2 "/>
<polygon fill="none" points="154.9,20 169.5,0 126.3,0 140.9,20 "/>
<polygon fill="none" points="149,32.6 164.3,70.9 177,58.1 177,58 "/>
<polygon fill="none" points="132.5,70.6 141.7,66 146.3,36.1 "/>
<polygon fill="none" points="154,66 163.2,70.6 149.4,36.1 "/>
<polygon fill="none" points="142,21.6 147.9,29.7 153.8,21.6 "/>
<polygon fill="none" points="170,1.9 149.7,29.8 192.8,12.1 "/>
<polygon fill="none" points="185.5,38.6 185.5,38.6 193.2,12.8 149.3,30.9 "/>
<polygon fill="none" points="151.8,32.3 172.5,43.8 184,39.2 151.8,32.3 "/>
<polygon fill="none" points="125.8,1.9 103,12.1 146,29.8 "/>
<polygon fill="none" points="102.5,12.8 110.3,38.6 110.3,38.6 146.4,30.9 "/>
<polygon fill="none" points="28,64.8 16.5,69.4 48.7,76.3 "/>
<polygon fill="none" points="147.9,51.7 149.9,49.5 147.9,36.1 145.8,49.5 "/>
<polygon fill="none" points="111.7,39.2 123.2,43.8 144,32.3 "/>
<polygon fill="none" points="118.8,58 118.7,58.1 131.5,70.9 146.8,32.6 "/>
<polygon fill="none" points="133.1,40.1 123.9,45.2 119.5,56.2 143.7,34.2 "/>
<polygon fill="none" points="88.8,69.4 77.3,64.8 56.5,76.3 "/>
<polygon fill="none" points="48.9,84 56.3,84 52.6,78.9 "/>
<polygon fill="none" points="66,69.3 76.6,63.4 81,52.4 56.8,74.4 "/>
<polygon fill="none" points="38.2,84 47,84 50.8,78.8 "/>
<polygon fill="none" points="51.5,76 36.2,37.7 23.5,50.5 23.5,50.6 "/>
<polygon fill="none" points="15,70 15,70 10.8,84 35.9,84 51.2,77.7 "/>
<polygon fill="none" points="81.7,50.6 81.8,50.5 69,37.7 53.7,76 "/>
<polygon fill="none" points="46.5,42.6 37.3,38 51.1,72.5 "/>
<polygon fill="none" points="90.2,70 54.1,77.7 69.3,84 94.4,84 90.2,70 "/>
<polygon fill="none" points="52.6,56.9 50.6,59.2 52.6,72.5 54.7,59.2 "/>
<polygon fill="none" points="58.2,84 67,84 54.5,78.8 "/>
<polygon fill="none" points="28.7,63.4 48.5,74.4 24.3,52.4 "/>
<polygon fill="none" points="68,38 58.8,42.6 54.2,72.5 "/>
<polygon fill="#051723" points="53.9,77.8 53.8,77.8 54.5,78.8 67,84 69.3,84 54.1,77.7 "/>
<polygon fill="#051723" points="53.6,76.1 53.7,76 69,37.7 68.9,37.6 68,38 54.2,72.5 "/>
<polygon fill="#051723" points="53.9,77.8 54.1,77.7 90.2,70 88.8,69.4 56.5,76.3 "/>
<polygon fill="#051723" points="53.6,76.1 53.6,76.1 56.8,74.4 81,52.4 81.7,50.6 53.7,76 "/>
<polygon fill="#051723" points="51.5,77.8 51.3,77.8 51.2,77.7 35.9,84 38.2,84 50.8,78.8 "/>
<polygon fill="#051723" points="51.6,76.1 51.1,72.5 37.3,38 36.4,37.6 36.2,37.7 51.5,76 "/>
<polygon fill="#051723" points="51.2,77.7 48.7,76.3 16.5,69.4 15,70 51.2,77.7 51.3,77.8 "/>
<polygon fill="#051723" points="23.5,50.6 24.3,52.4 48.5,74.4 51.6,76.1 51.6,76.1 51.5,76 "/>
<polygon fill="#051723" points="76.6,63.4 76.6,63.4 66,69.3 "/>
<polygon fill="#051723" points="78.2,63.5 77.8,64.5 77.3,64.8 88.8,69.4 90.2,70 90.2,70 94.4,84 96.1,84 91.5,68.8 "/>
<polygon fill="#051723" points="53.8,77.8 53.5,78 53.6,79 52.8,78.6 52.6,78.9 56.3,84 58.2,84 54.5,78.8 "/>
<path fill="#051723" d="M54.9,59.4l-0.2-0.3l-2.1,13.3l0.7,4.6l0.4,0.2l-0.3,0.4l0,0.2l0.3-0.2l0.2-0.1l2.6-1.4l20.7-11.5l0.6-0.3
	l0.4-1l5.4-13.4L69.2,35.7l-11.8,5.9L55,57.2l1.1,1.2L54.9,59.4z M58.8,42.6L68,38l0.9-0.4l0.2,0.2l12.7,12.7l0,0.1L81,52.4l-4.4,11
	v0L66,69.3l-9.2,5.1l-3.2,1.8l0-0.1l0.5-3.6L58.8,42.6z"/>
<polygon fill="#051723" points="15,70 16.5,69.4 28,64.8 48.7,76.3 51.2,77.7 27.4,64.5 27,63.5 13.8,68.8 9.2,84 10.8,84 15,70 "/>
<polygon fill="#051723" points="52.8,78.6 51.5,77.8 50.8,78.8 47,84 48.9,84 52.6,78.9 "/>
<polygon fill="#051723" points="53.8,77.3 53.3,77.1 53.4,77.8 "/>
<path fill="#051723" d="M51.2,77.7l0.1,0.1l0.2,0.1l1.4,0.8l0.8,0.4l-0.2-1l0-0.2l-0.1-0.7l-0.7-4.6l-2.1-13.3l-0.2,0.3l-1.2-1
	l1.1-1.2l-2.4-15.6l-11.8-5.9L21.7,50.1L27,63.5l0.4,1L51.2,77.7z M36.2,37.7l0.2-0.2l0.9,0.4l9.2,4.6l4.6,29.9l0.5,3.6l0,0.1
	l-3.2-1.8l-19.8-11l-4.4-11l-0.7-1.8l0-0.1L36.2,37.7z"/>
<polygon fill="#051723" points="50.3,59.4 50.6,59.2 52.6,56.9 54.7,59.2 54.9,59.4 56.1,58.4 55,57.2 52.6,54.6 50.3,57.2 
	49.2,58.4 "/>
<polygon fill="#051723" points="146.6,30.9 146.7,30.8 146,29.8 103,12.1 102.4,12.3 102.5,12.8 146.4,30.9 "/>
<polygon fill="#051723" points="146.9,32.5 146.8,32.6 131.5,70.9 131.6,71 132.5,70.6 146.3,36.1 "/>
<polygon fill="#051723" points="146.6,30.9 146.4,30.9 110.3,38.6 111.7,39.2 144,32.3 "/>
<polygon fill="#051723" points="146.9,32.5 146.9,32.5 143.7,34.2 119.5,56.2 118.8,58 146.8,32.6 "/>
<polygon fill="#051723" points="149.3,30.9 193.2,12.8 193.4,12.3 192.8,12.1 149.7,29.8 149,30.8 149.2,30.8 "/>
<polygon fill="#051723" points="148.9,32.5 149.4,36.1 163.2,70.6 164.1,71 164.3,70.9 149,32.6 "/>
<polygon fill="#051723" points="149.2,30.8 151.8,32.3 184,39.2 185.5,38.6 149.3,30.9 "/>
<polygon fill="#051723" points="177,58 176.2,56.2 152,34.2 148.9,32.5 148.9,32.5 149,32.6 "/>
<polygon fill="#051723" points="109,39.8 122.3,45.1 122.7,44.1 123.2,43.8 111.7,39.2 110.3,38.6 110.3,38.6 102.5,12.8 
	102.4,12.3 103,12.1 125.8,1.9 146,29.8 146.7,30.8 147,30.6 146.9,29.6 147.7,30 147.9,29.7 142,21.6 140.5,21.6 140.5,20 
	140.9,20 126.3,0 100.5,11.5 "/>
<polygon fill="#051723" points="123.9,45.2 123.9,45.2 133.1,40.1 "/>
<path fill="#051723" d="M145.6,49.2l0.2,0.3l2.1-13.3l-0.7-4.6l-0.4-0.2l0.3-0.5l0-0.2l-0.3,0.2l-0.2,0.1l-2.6,1.4l-20.7,11.5
	l-0.6,0.3l-0.4,1l-5.4,13.4l14.4,14.4l11.8-5.9l2.4-15.6l-1.1-1.2L145.6,49.2z M141.7,66l-9.2,4.6l-0.9,0.4l-0.2-0.2l-12.7-12.7
	l0-0.1l0.7-1.8l4.4-11v0l9.2-5.1l10.6-5.9l3.2-1.8l0,0.1l-0.5,3.6L141.7,66z"/>
<polygon fill="#051723" points="155.3,20 155.3,21.6 153.8,21.6 147.9,29.7 147.7,30 149,30.8 149.7,29.8 170,1.9 192.8,12.1 
	193.4,12.3 193.2,12.8 185.5,38.6 185.5,38.6 184,39.2 172.5,43.8 151.8,32.3 173.1,44.1 173.5,45.1 186.8,39.8 195.3,11.5 169.5,0 
	154.9,20 "/>
<polygon fill="#051723" points="146.7,31.3 147.2,31.5 147.1,30.8 "/>
<path fill="#051723" d="M151.8,32.3L151.8,32.3l-2.6-1.5l-0.2-0.1l-1.4-0.8l-0.8-0.4l0.2,1l0,0.2l0.1,0.7l0.7,4.6l2.1,13.3l0.2-0.3
	l1.1,1l-1.1,1.2l2.4,15.6l11.8,5.9l14.4-14.4l-5.4-13.4l-0.4-1L151.8,32.3z M164.3,70.9l-0.2,0.2l-0.9-0.4L154,66l-4.6-29.9
	l-0.5-3.6l0-0.1l3.2,1.8l19.8,11l4.4,11L177,58l0,0.1L164.3,70.9z"/>
<polygon fill="#051723" points="150.2,49.2 149.9,49.5 147.9,51.7 145.8,49.5 145.6,49.2 144.4,50.2 145.5,51.4 147.9,54 
	150.2,51.4 151.3,50.2 "/>
<polygon fill="#051723" points="155.3,21.6 155.3,20 154.9,20 140.9,20 140.5,20 140.5,21.6 142,21.6 153.8,21.6 "/>
</svg>
