<?xml version="1.0" encoding="utf-8"?>
<!-- Generator: Adobe Illustrator 16.0.4, SVG Export Plug-In . SVG Version: 6.00 Build 0)  -->
<!DOCTYPE svg PUBLIC "-//W3C//DTD SVG 1.1//EN" "http://www.w3.org/Graphics/SVG/1.1/DTD/svg11.dtd">
<svg version="1.1" id="Layer_1" xmlns="http://www.w3.org/2000/svg" xmlns:xlink="http://www.w3.org/1999/xlink" x="0px" y="0px"
	 width="511.9px" height="64.5px" viewBox="0 0 511.9 64.5" enable-background="new 0 0 511.9 64.5" xml:space="preserve">
<g>
	<defs>
		<rect id="SVGID_1_" width="511.9" height="64.5"/>
	</defs>
	<clipPath id="SVGID_2_">
		<use xlink:href="#SVGID_1_"  overflow="visible"/>
	</clipPath>
	<path clip-path="url(#SVGID_2_)" fill="#FFFFFF" d="M141.5,49v0.2h-9.8V49c1.4-0.4,2.2-1.8,2.2-6.2V22.4l-11.8,26.8h-1.4
		l-12.4-26.4v18.4c0,5.6,1.4,7.2,4,7.9v0.2h-8.6V49c2.3-0.7,3.8-2.2,3.8-7.9V23.6c0-3.5-1.7-5.2-3.8-5.9v-0.2h8l12.1,25.9l11.5-25.9
		h6.1v0.2c-1.3,0.3-1.9,1.8-1.9,6.4v18.7C139.4,47.2,140.1,48.6,141.5,49"/>
	<path clip-path="url(#SVGID_2_)" fill="#FFFFFF" d="M175.1,49v0.2h-11.4V49c2-0.6,2.8-2.2,1.3-6.2l-1.7-4.5h-12.5l-1.6,4
		c-1.6,4-0.1,6.2,2.7,6.7v0.2h-8.6V49c1.7-0.5,3.3-2.4,4.9-6.2l10.3-25.3h2.7l9.4,24.6C172.8,47.7,173.7,48.6,175.1,49 M163,37.5
		l-5.7-15.3l-6.2,15.3H163z"/>
	<path clip-path="url(#SVGID_2_)" fill="#FFFFFF" d="M205.3,34.4v0.1c-1.3,0.4-2.1,2-2.1,6.4c0,5.2,0.1,6.2,0.6,8.2l-0.1,0.1
		l-3.1-2.1c-1.7,1.1-5.2,2.3-9.8,2.3c-9.6,0-16.5-6.4-16.5-16.3s7-16.2,16.9-16.2c4.7,0,9,1,10.5,2l0.3,8l-0.2,0.1
		c-2.4-6.5-5.2-9.4-10.6-9.4c-6.6,0-11.1,5.6-11.1,15.5c0,9.9,4.4,15.5,10.7,15.5c5.2,0,7.6-2.2,7.6-7.8c0-4.7-1.2-6.1-3.5-6.4v-0.1
		H205.3z"/>
	<path clip-path="url(#SVGID_2_)" fill="#FFFFFF" d="M238.5,34.4v0.1c-1.3,0.4-2.1,2-2.1,6.4c0,5.2,0.1,6.2,0.6,8.2l-0.1,0.1
		l-3.1-2.1c-1.7,1.1-5.2,2.3-9.8,2.3c-9.6,0-16.5-6.4-16.5-16.3s7-16.2,16.9-16.2c4.7,0,9,1,10.5,2l0.3,8l-0.2,0.1
		c-2.4-6.5-5.2-9.4-10.6-9.4c-6.6,0-11.1,5.6-11.1,15.5c0,9.9,4.4,15.5,10.7,15.5c5.2,0,7.6-2.2,7.6-7.8c0-4.7-1.2-6.1-3.5-6.4v-0.1
		H238.5z"/>
	<path clip-path="url(#SVGID_2_)" fill="#FFFFFF" d="M251.9,49v0.2h-9.7V49c1.3-0.4,2.1-1.8,2.1-6.3V23.9c0-4.4-0.8-5.9-2.1-6.3
		v-0.2h9.7v0.2c-1.4,0.4-2.1,1.8-2.1,6.3v18.8C249.7,47.2,250.5,48.6,251.9,49"/>
	<path clip-path="url(#SVGID_2_)" fill="#FFFFFF" d="M280.3,40.3l-1,8.9h-22.6V49c1.3-0.4,2.1-1.8,2.1-6.3V23.9
		c0-4.4-0.8-5.9-2.1-6.3v-0.2h21.4l0.4,8.7l-0.2,0.1c-1.7-5.6-4.1-8.2-9-8.2h-5.1v14.1h4.8c4.2,0,5.5-1.4,6.3-3.9h0.2v9.1h-0.2
		c-0.7-2.8-2.1-4.5-6.3-4.5h-4.8v15.6h5.6c4.5,0,8.1-2.8,10.1-8.3L280.3,40.3z"/>
	<path clip-path="url(#SVGID_2_)" fill="#FFFFFF" d="M318.1,40.3l-1,8.9h-22.6V49c1.3-0.4,2.1-1.8,2.1-6.3V23.9
		c0-4.4-0.8-5.9-2.1-6.3v-0.2H316l0.4,8.7l-0.2,0.1c-1.7-5.6-4.1-8.2-9-8.2h-5.1v14.1h4.8c4.2,0,5.6-1.4,6.3-3.9h0.2v9.1h-0.2
		c-0.7-2.8-2.1-4.5-6.3-4.5h-4.8v15.6h5.6c4.5,0,8.1-2.8,10.1-8.3L318.1,40.3z"/>
	<path clip-path="url(#SVGID_2_)" fill="#FFFFFF" d="M351.3,33.3c0,9.9-6.8,15.9-20.2,15.9h-9.2V49c1.3-0.4,2.1-1.8,2.1-6.3V23.9
		c0-4.4-0.8-5.9-2.1-6.3v-0.2h9.6C344.5,17.5,351.3,23.4,351.3,33.3 M345.6,33.3c0-11-5.5-15.1-13.6-15.1h-2.5v30.2h2.1
		C340.1,48.4,345.6,44.3,345.6,33.3"/>
	<path clip-path="url(#SVGID_2_)" fill="#FFFFFF" d="M401,17.5v0.2c-1.7,0.5-3.4,2.3-4.9,6.2l-9.4,25.3h-2.7l-8.6-22.5l-8.7,22.5
		H364l-9.2-24.6c-2.1-5.7-3.1-6.6-4.5-7v-0.2h11.4v0.2c-2,0.6-2.8,2.1-1.3,6.2l7.3,20.4l7.3-18.7l-0.3-0.9c-2.2-5.6-3.1-6.6-4.5-7
		v-0.2h11.4v0.2c-2,0.6-2.8,2.2-1.3,6.2l7.6,20.4l7.3-19.9c1.5-4.1,0.1-6.2-2.7-6.7v-0.2H401z"/>
	<path clip-path="url(#SVGID_2_)" fill="#FFFFFF" d="M425.5,49v0.2h-11.4V49c2-0.6,2.8-2.2,1.3-6.2l-1.7-4.5h-12.5l-1.6,4
		c-1.6,4-0.1,6.2,2.7,6.7v0.2h-8.6V49c1.7-0.5,3.3-2.4,4.9-6.2l10.3-25.3h2.7l9.4,24.6C423.2,47.7,424.1,48.6,425.5,49 M413.4,37.5
		l-5.7-15.3l-6.2,15.3H413.4z"/>
	<path clip-path="url(#SVGID_2_)" fill="#FFFFFF" d="M454.8,49v0.2h-7.1l-7.2-14.5c-0.6,0-1.3,0.1-1.9,0.1h-2.8v7.1
		c0,5.2,0.8,6.7,2.5,7.1v0.2h-10.1V49c1.3-0.4,2.1-1.8,2.1-6.3V23.9c0-4.4-0.8-5.9-2.1-6.3v-0.2H439c8.3,0,12.1,3.8,12.1,8.7
		c0,3.3-2.1,6-5.8,7.4l6.3,11.2C453.2,47.6,454,48.8,454.8,49 M445.3,26.2c0-5.2-2.3-8.1-7.4-8.1h-2.1v15.9h2.7
		C443,34.1,445.3,31.1,445.3,26.2"/>
	<path clip-path="url(#SVGID_2_)" fill="#FFFFFF" d="M487.6,33.3c0,9.9-6.8,15.9-20.2,15.9h-9.2V49c1.3-0.4,2.1-1.8,2.1-6.3V23.9
		c0-4.4-0.8-5.9-2.1-6.3v-0.2h9.6C480.7,17.5,487.6,23.4,487.6,33.3 M481.8,33.3c0-11-5.5-15.1-13.6-15.1h-2.5v30.2h2.1
		C476.4,48.4,481.8,44.3,481.8,33.3"/>
	<path clip-path="url(#SVGID_2_)" fill="#FFFFFF" d="M511.9,40.8c0,4.5-3.8,8.7-11.9,8.7c-4,0-8.4-1.5-10.2-2.7l1.2-8l0.2,0
		c1.5,7.3,4.9,9.9,8.8,9.9c4.9,0,6.9-2.7,6.9-5.5c0-9-16.1-7.7-16.1-17.7c0-4.5,4.2-8.4,10.4-8.4c4.2,0,7.6,1.5,9.2,2.7l-1.2,7.6
		l-0.2,0c-1-6.3-3.8-9.6-7.9-9.6c-3.5,0-5.9,2.1-5.9,5C495.3,31.3,511.9,30,511.9,40.8"/>
</g>
<g>
	<defs>
		<path id="SVGID_3_" d="M40.1,43.7l1.8-11.8l1.8,11.8l-1.8,2L40.1,43.7z M40.5,31.9l-4.1,26.5l-8.1,4.1L40.5,31.9z M47.4,58.4
			l-4.1-26.5l12.2,30.5L47.4,58.4z M20.7,40l17.5-9.7L16.8,49.7L20.7,40z M45.6,30.3L63.1,40l3.9,9.7L45.6,30.3z M16.1,51.4
			L16.1,51.4l24.8-22.6L27.4,62.7L16.1,51.4z M42.9,28.8l24.8,22.5l0,0.1L56.4,62.7L42.9,28.8z M9.9,34.7l28.5-6.1L20.1,38.7
			L9.9,34.7z M45.3,28.6l28.5,6.1l-10.2,4.1L45.3,28.6z M36.7,19.1h10.4l-5.2,7.2L36.7,19.1z M8.6,34.2L1.8,11.3l38.8,16L8.6,34.2
			L8.6,34.2z M43.2,27.3l38.8-16l-6.9,22.8l0,0L43.2,27.3z M2.2,10.7l20.2-9l17.9,24.6L2.2,10.7z M61.5,1.7l20.2,9L43.5,26.3
			L61.5,1.7z M61,0L48.1,17.7H35.7L22.8,0L0,10.1l7.5,25.1l11.7,4.7l-4.7,11.9l12.8,12.8l10.4-5.2l2.1-13.8l2.1,2.3l2.1-2.3
			l2.1,13.8l10.4,5.2l12.7-12.8l-4.7-11.9l11.7-4.7l7.5-25.1L61,0z"/>
	</defs>
	<clipPath id="SVGID_4_">
		<use xlink:href="#SVGID_3_"  overflow="visible"/>
	</clipPath>
	
		<linearGradient id="SVGID_5_" gradientUnits="userSpaceOnUse" x1="-4.882812e-04" y1="64.502" x2="0.9995" y2="64.502" gradientTransform="matrix(83.8029 0 0 -83.8029 0 5437.6997)">
		<stop  offset="0" style="stop-color:#CF957F"/>
		<stop  offset="9.887633e-02" style="stop-color:#D19781"/>
		<stop  offset="0.1517" style="stop-color:#D69F89"/>
		<stop  offset="0.1936" style="stop-color:#E0AD96"/>
		<stop  offset="0.2296" style="stop-color:#EDC0A9"/>
		<stop  offset="0.2589" style="stop-color:#FDD6BF"/>
		<stop  offset="0.2965" style="stop-color:#F8CFB9"/>
		<stop  offset="0.381" style="stop-color:#F0C6B1"/>
		<stop  offset="0.5002" style="stop-color:#EEC3AF"/>
		<stop  offset="1" style="stop-color:#CF957F"/>
	</linearGradient>
	<rect clip-path="url(#SVGID_4_)" fill="url(#SVGID_5_)" width="83.8" height="64.5"/>
</g>
</svg>
