<?xml version="1.0" encoding="utf-8"?><svg xmlns="http://www.w3.org/2000/svg" xmlns:xlink="http://www.w3.org/1999/xlink" width="356.3" height="323.7" viewBox="0 0 356.3 323.7"><path fill="#FFF" d="M95.6 185v.3H79.4v-.3c2.3-.7 3.7-3 3.7-10.2v-33.5l-19.5 44h-2.4l-20.4-43.5V172c0 9.3 2.2 11.9 6.5 13v.3H33.2v-.3c3.7-1.1 6.3-3.7 6.3-13v-28.9c0-5.7-2.8-8.6-6.3-9.7v-.3h13.2l19.9 42.6 19-42.6h10v.3c-2.1.6-3.2 3-3.2 10.6v30.8c0 7.1 1.2 9.4 3.5 10.2m55.3 0v.3h-18.7v-.3c3.2-.9 4.6-3.6 2.2-10.1l-2.8-7.5H111l-2.7 6.6c-2.7 6.6-.2 10.1 4.4 11v.3H98.6v-.3c2.9-.9 5.5-4 8-10.2l16.9-41.7h4.5l15.5 40.4c3.6 9.3 5.1 10.7 7.4 11.5M131 166l-9.4-25.1-10.1 25.1H131zm69.6-5.1v.2c-2.2.6-3.5 3.2-3.5 10.6 0 8.5.1 10.2.9 13.5l-.1.2-5-3.4c-2.8 1.9-8.5 3.8-16.2 3.8-15.8 0-27.1-10.6-27.1-26.8 0-16.2 11.6-26.7 27.8-26.7 7.8 0 14.8 1.7 17.3 3.3l.4 13.2-.3.1c-3.9-10.6-8.6-15.4-17.5-15.4-10.8 0-18.4 9.3-18.4 25.5 0 16.3 7.3 25.5 17.6 25.5 8.6.1 12.5-3.6 12.5-12.9 0-7.7-1.9-10-5.8-10.6v-.2h17.4v.1zm54.6 0v.2c-2.2.6-3.5 3.2-3.5 10.6 0 8.5.1 10.2.9 13.5l-.1.2-5-3.4c-2.8 1.9-8.5 3.8-16.2 3.8-15.8 0-27.1-10.6-27.1-26.8 0-16.2 11.6-26.7 27.8-26.7 7.8 0 14.8 1.7 17.3 3.3l.4 13.2-.3.1c-3.9-10.6-8.6-15.4-17.5-15.4-10.8 0-18.3 9.3-18.3 25.5 0 16.3 7.3 25.5 17.6 25.5 8.6.1 12.5-3.6 12.5-12.9 0-7.7-1.9-10-5.8-10.6v-.2h17.3v.1zm20.6 24.1v.3h-16v-.3c2.2-.7 3.5-3 3.5-10.3v-31c0-7.3-1.3-9.6-3.5-10.3v-.3h15.9v.3c-2.3.6-3.5 3-3.5 10.3v31c.1 7.2 1.3 9.5 3.6 10.3m46.8-14.4l-1.6 14.7h-37.1v-.3c2.2-.7 3.5-3 3.5-10.3v-31c0-7.3-1.3-9.6-3.5-10.3v-.3h35.3l.6 14.4-.3.1c-2.8-9.1-6.7-13.5-14.8-13.5h-8.3v23.2h7.8c6.8 0 9.1-2.4 10.4-6.4h.3v15h-.3c-1.2-4.5-3.5-7.5-10.4-7.5h-7.8v25.7h9.3c7.4 0 13.3-4.6 16.7-13.7l.2.2zm-283.9 69l-1.6 14.7H0v-.3c2.2-.7 3.5-3 3.5-10.3v-31c0-7.3-1.3-9.6-3.5-10.3v-.3h35.3l.6 14.4-.3.1c-2.8-9.1-6.7-13.5-14.8-13.5h-8.3v23.2h7.8c6.8 0 9.1-2.4 10.4-6.4h.3v15h-.3c-1.2-4.5-3.5-7.5-10.4-7.5h-7.8v25.7h9.3c7.4 0 13.3-4.6 16.7-13.7l.2.2zm54.7-11.5c0 16.3-11.2 26.1-33.3 26.1H45v-.2c2.2-.7 3.5-3 3.5-10.3v-31c0-7.3-1.3-9.6-3.5-10.3v-.3h15.8c21.3 0 32.6 9.7 32.6 26m-9.5 0c0-18.1-9-24.8-22.4-24.8h-4.1V253h3.4c14.2 0 23.1-6.7 23.1-24.9m91.2-26v.3c-2.9.8-5.6 3.8-8 10.2l-15.4 41.7h-4.5L133 217.2l-14.3 37.1h-4.5l-15.1-40.4c-3.5-9.4-5-10.8-7.4-11.4v-.3h18.8v.3c-3.2.9-4.5 3.5-2.2 10.1l12.1 33.6 11.9-30.8-.6-1.5c-3.6-9.3-5.1-10.8-7.4-11.4v-.3H143v.3c-3.2.9-4.5 3.6-2.2 10.1l12.4 33.6 12.1-32.7c2.4-6.8.1-10.1-4.5-11v-.3l14.3-.1zM214 254v.3h-18.7v-.3c3.2-.9 4.6-3.6 2.2-10.1l-2.8-7.5h-20.5l-2.7 6.6c-2.7 6.6-.2 10.1 4.4 11v.3h-14.2v-.3c2.9-.9 5.5-4 8-10.2l16.9-41.7h4.5l15.5 40.4c3.6 9.3 5.1 10.7 7.4 11.5m-19.9-19l-9.4-25.1-10.1 25.1h19.5zm68.1 18.9v.4h-11.7l-11.8-23.8c-1 .1-2.1.1-3.2.1h-4.7v11.7c0 8.6 1.4 11 4.2 11.7v.3h-16.6v-.3c2.2-.7 3.5-3 3.5-10.3v-31c0-7.3-1.3-9.6-3.5-10.3v-.3h17.8c13.6 0 19.9 6.3 19.9 14.3 0 5.5-3.5 9.9-9.5 12.2l10.4 18.5c2.6 4.5 3.9 6.5 5.2 6.8m-15.6-37.4c0-8.6-3.8-13.3-12.2-13.3h-3.5v26.2h4.4c7.6 0 11.3-4.9 11.3-12.9m69.6 11.6c0 16.3-11.2 26.1-33.3 26.1h-15.1v-.2c2.2-.7 3.5-3 3.5-10.3v-31c0-7.3-1.3-9.6-3.5-10.3v-.3h15.8c21.3 0 32.6 9.7 32.6 26m-9.5 0c0-18.1-9-24.8-22.4-24.8h-4.1V253h3.4c14.2 0 23.1-6.7 23.1-24.9m49.6 12.4c0 7.4-6.2 14.3-19.6 14.3-6.6 0-13.8-2.4-16.8-4.5l2-13.1.3-.1c2.5 12 8 16.3 14.5 16.3 8.1 0 11.4-4.5 11.4-9.1 0-14.8-26.6-12.6-26.6-29.2 0-7.5 7-13.9 17.1-13.9 7 0 12.4 2.4 15.2 4.5l-1.9 12.5-.3.1c-1.7-10.3-6.3-15.8-13-15.8-5.8 0-9.7 3.5-9.7 8.3 0 14.1 27.4 11.8 27.4 29.7M41.9 293.7v1.7H32v-13.7h9.6v1.7h-7.7v4.2h6.8v1.7h-6.8v4.4h8zM58.1 295.4v-9.9l-4.9 8.3h-.9l-4.9-8.2v9.9h-1.9v-13.7h1.6l5.7 9.6 5.6-9.6H60v13.7h-1.9zM74.3 289.5c.5.6.7 1.3.7 2.2 0 1.2-.4 2.1-1.3 2.7-.9.6-2.2 1-3.9 1h-6.5v-13.7h6.1c1.6 0 2.8.3 3.6.9.9.6 1.3 1.5 1.3 2.6 0 .7-.2 1.3-.5 1.9-.3.5-.8.9-1.3 1.2.8.2 1.4.6 1.8 1.2zm-9.1-6.2v4.4h4c1 0 1.8-.2 2.3-.6.5-.4.8-.9.8-1.6s-.3-1.3-.8-1.6c-.5-.4-1.3-.6-2.3-.6h-4zm7 9.9c.6-.4.8-.9.8-1.7 0-1.5-1.1-2.3-3.3-2.3h-4.5v4.5h4.5c1.1.1 2-.1 2.5-.5zM86.5 295.4l-2.9-4.2h-4.3v4.2h-2v-13.7h5.3c1.8 0 3.2.4 4.2 1.3s1.5 2 1.5 3.5c0 1.1-.3 1.9-.8 2.7-.5.7-1.3 1.3-2.2 1.6l3.2 4.6h-2zm-1.1-6.7c.6-.5 1-1.3 1-2.3s-.3-1.7-1-2.3c-.7-.5-1.6-.8-2.8-.8h-3.3v6.1h3.3c1.2.1 2.2-.1 2.8-.7zM100.8 291.9h-7.3l-1.5 3.4h-2l6.2-13.7h1.9l6.2 13.7h-2l-1.5-3.4zm-.7-1.5l-2.9-6.7-2.9 6.7h5.8zM108.5 294.6c-1.1-.6-2-1.4-2.6-2.5-.6-1.1-.9-2.3-.9-3.6s.3-2.5.9-3.6c.6-1.1 1.5-1.9 2.6-2.5 1.1-.6 2.3-.9 3.7-.9 1.1 0 2 .2 2.9.5.9.4 1.6.9 2.3 1.6l-1.3 1.2c-1-1.1-2.3-1.6-3.8-1.6-1 0-1.9.2-2.7.7s-1.5 1.1-1.9 1.9c-.5.8-.7 1.7-.7 2.7 0 1 .2 1.9.7 2.7s1.1 1.4 1.9 1.9 1.7.7 2.7.7c1.5 0 2.8-.5 3.8-1.6l1.3 1.2c-.6.7-1.4 1.2-2.3 1.6-.9.4-1.9.5-2.9.5-1.4 0-2.6-.3-3.7-.9zM129.8 293.7v1.7h-9.9v-13.7h9.6v1.7h-7.7v4.2h6.8v1.7h-6.8v4.4h8zM149 283c1 .8 1.5 2 1.5 3.5s-.5 2.6-1.5 3.5c-1 .8-2.4 1.3-4.2 1.3h-3.4v4.1h-2v-13.7h5.3c1.9 0 3.3.4 4.3 1.3zm-1.4 5.7c.6-.5 1-1.3 1-2.3s-.3-1.7-1-2.3c-.7-.5-1.6-.8-2.8-.8h-3.3v6.1h3.3c1.2.1 2.1-.1 2.8-.7zM155.2 294.6c-1.1-.6-2-1.4-2.6-2.5-.6-1.1-.9-2.3-.9-3.6 0-1.3.3-2.5.9-3.6.6-1.1 1.5-1.9 2.6-2.5 1.1-.6 2.3-.9 3.7-.9 1.4 0 2.6.3 3.7.9 1.1.6 2 1.4 2.6 2.5.6 1.1.9 2.3.9 3.6s-.3 2.5-.9 3.6c-.6 1.1-1.5 1.9-2.6 2.5-1.1.6-2.3.9-3.7.9-1.4 0-2.6-.3-3.7-.9zm6.4-1.5c.8-.5 1.4-1.1 1.9-1.9s.7-1.7.7-2.7c0-1-.2-1.9-.7-2.7-.5-.8-1.1-1.4-1.9-1.9-.8-.5-1.7-.7-2.7-.7s-1.9.2-2.7.7-1.4 1.1-1.9 1.9c-.5.8-.7 1.7-.7 2.7 0 1 .2 1.9.7 2.7s1.1 1.4 1.9 1.9 1.7.7 2.7.7 1.9-.3 2.7-.7zM169.7 295c-1-.3-1.7-.7-2.3-1.2l.7-1.5c.5.5 1.2.8 2 1.1.8.3 1.6.4 2.5.4 1.1 0 2-.2 2.5-.6.6-.4.8-.9.8-1.5 0-.5-.2-.8-.5-1.1-.3-.3-.7-.5-1.1-.7-.4-.2-1.1-.3-1.9-.5-1-.2-1.9-.5-2.5-.7-.6-.2-1.2-.6-1.6-1.1-.4-.5-.7-1.2-.7-2.1 0-.7.2-1.4.6-2 .4-.6 1-1.1 1.7-1.4.8-.4 1.7-.5 2.9-.5.8 0 1.6.1 2.4.3.8.2 1.4.5 2 .9l-.6 1.6c-.6-.4-1.2-.6-1.8-.8-.7-.2-1.3-.3-1.9-.3-1.1 0-1.9.2-2.5.6-.6.4-.8.9-.8 1.6 0 .5.2.8.5 1.1.3.3.7.5 1.2.7.5.2 1.1.3 1.9.5 1 .2 1.9.5 2.5.7.6.2 1.2.6 1.6 1.1.4.5.7 1.2.7 2 0 .7-.2 1.4-.6 2s-1 1.1-1.8 1.4c-.8.3-1.8.5-2.9.5-1 0-2-.1-3-.5zM181.2 281.7h2v13.7h-2v-13.7zM190.5 283.4h-4.7v-1.7h11.3v1.7h-4.7v12h-1.9v-12zM199.9 281.7h2v13.7h-2v-13.7zM218.5 281.7l-6 13.7h-1.9l-6-13.7h2.1l4.9 11.2 5-11.2h1.9zM231 293.7v1.7h-9.9v-13.7h9.6v1.7H223v4.2h6.8v1.7H223v4.4h8zM241.4 294.6c-1.1-.6-2-1.4-2.6-2.5-.6-1.1-.9-2.3-.9-3.6s.3-2.5.9-3.6c.6-1.1 1.5-1.9 2.6-2.5 1.1-.6 2.3-.9 3.7-.9 1.1 0 2 .2 2.9.5.9.4 1.6.9 2.3 1.6l-1.3 1.2c-1-1.1-2.3-1.6-3.8-1.6-1 0-1.9.2-2.8.7-.8.5-1.5 1.1-1.9 1.9-.5.8-.7 1.7-.7 2.7 0 1 .2 1.9.7 2.7.5.8 1.1 1.4 1.9 1.9.8.5 1.7.7 2.8.7 1.5 0 2.8-.5 3.8-1.6l1.3 1.2c-.6.7-1.4 1.2-2.3 1.6-.9.4-1.9.5-2.9.5-1.3 0-2.6-.3-3.7-.9zM265.5 281.7v13.7h-2v-6.1h-7.8v6.1h-2v-13.7h2v5.9h7.8v-5.9h2zM278.9 291.9h-7.3l-1.5 3.4h-2l6.2-13.7h1.9l6.2 13.7h-2l-1.5-3.4zm-.7-1.5l-2.9-6.7-2.9 6.7h5.8zM296.2 281.7v13.7h-1.6l-8.2-10.2v10.2h-2v-13.7h1.6l8.2 10.2v-10.2h2zM309.5 288.4h1.9v5.3c-.7.6-1.5 1-2.4 1.3-.9.3-1.8.4-2.8.4-1.4 0-2.6-.3-3.7-.9-1.1-.6-2-1.4-2.6-2.5-.6-1.1-.9-2.3-.9-3.6s.3-2.5.9-3.6c.6-1.1 1.5-1.9 2.6-2.5 1.1-.6 2.4-.9 3.8-.9 1.1 0 2.1.2 3 .5.9.4 1.6.9 2.3 1.6l-1.2 1.2c-1.1-1.1-2.4-1.6-4-1.6-1 0-2 .2-2.8.7-.8.4-1.5 1.1-1.9 1.9-.5.8-.7 1.7-.7 2.7 0 1 .2 1.9.7 2.7.5.8 1.1 1.4 1.9 1.9.8.5 1.8.7 2.8.7 1.2 0 2.3-.3 3.2-.9v-4.4zM324.8 293.7v1.7h-9.9v-13.7h9.6v1.7h-7.7v4.2h6.8v1.7h-6.8v4.4h8z"/><defs><path id="a" d="M166.6 321.1h23.1v2.5h-23.1z"/></defs><clipPath id="b"><use xlink:href="#a" overflow="visible"/></clipPath><linearGradient id="c" gradientUnits="userSpaceOnUse" x1="168.156" y1="-135.23" x2="169.155" y2="-135.23" gradientTransform="translate(-3722.392 3449.804) scale(23.127)"><stop offset="0" stop-color="#eec3af"/><stop offset="1" stop-color="#edbea9"/></linearGradient><path clip-path="url(#b)" fill="url(#c)" d="M166.6 321.1h23.1v2.5h-23.1v-2.5z"/><g><defs><path id="d" d="M175.2 71.6l3-19.3 3 19.3-3 3.3-3-3.3zm.7-19.3l-6.7 43.3-13.3 6.7 20-50zm11.2 43.3l-6.7-43.3 20 50-13.3-6.7zm-43.7-30.1l.3-.2L172 49.6l-35 31.8 6.4-15.9zm40.8-15.9l28.3 15.7.3.2 6.4 15.9-35-31.8zm-48.3 34.6l.1-.1 40.6-36.9-22.2 55.4-18.5-18.4zm43.8-37l40.6 36.9.1.1-18.4 18.4-22.3-55.4zm-54 9.6l46.7-10-30 16.7-16.7-6.7zm58.1-10l46.7 10-16.7 6.7-30-16.7zm-14.2-15.5h17.1L178.1 43l-8.5-11.7zM123.7 56l-11.2-37.4L176 44.7 123.7 56zm56.5-11.3l63.6-26.2L232.6 56l-52.4-11.3zm-67.1-27.2l33-14.7 29.3 40.3-62.3-25.6zm97.1-14.7l33 14.7-62.4 25.7 29.4-40.4zm-.8-2.8l-21.1 29H168L146.9 0l-37.4 16.6 12.3 41 19.2 7.7-7.8 19.4 20.9 20.9 17.1-8.5 3.5-22.6 3.4 3.8 3.4-3.8 3.5 22.6 17.1 8.5L223 84.8l-7.8-19.4 19.2-7.7 12.3-41L209.4 0z"/></defs><clipPath id="e"><use xlink:href="#d" overflow="visible"/></clipPath><linearGradient id="f" gradientUnits="userSpaceOnUse" x1="163.578" y1="-143.627" x2="164.578" y2="-143.627" gradientTransform="translate(-22343.924 19767.818) scale(137.2646)"><stop offset="0" stop-color="#cf957f"/><stop offset=".099" stop-color="#d19781"/><stop offset=".152" stop-color="#d69f89"/><stop offset=".194" stop-color="#e0ad96"/><stop offset=".23" stop-color="#edc0a9"/><stop offset=".259" stop-color="#fdd6bf"/><stop offset=".296" stop-color="#f8cfb9"/><stop offset=".381" stop-color="#f0c6b1"/><stop offset=".5" stop-color="#eec3af"/><stop offset="1" stop-color="#cf957f"/></linearGradient><path clip-path="url(#e)" fill="url(#f)" d="M109.5 0h137.3v105.7H109.5V0z"/></g></svg>