<svg width="346" height="207" fill="none" xmlns="http://www.w3.org/2000/svg"><g clip-path="url(#clip0_3678_10426)"><path d="M264.906 204.521c-4.43-3.743-7.121-9.656-6.415-15.413.706-5.756 5.076-11.048 10.745-12.27 5.669-1.223 12.132 2.161 13.854 7.699.947-10.677 2.039-21.801 7.716-30.893 5.14-8.233 14.042-14.124 23.69-15.178 9.649-1.054 19.807 2.926 25.824 10.542 6.017 7.615 7.491 18.686 3.276 27.429-3.104 6.44-8.824 11.234-14.817 15.133a95.62 95.62 0 0 1-65.403 14.308l1.53-1.357z" fill="#E9ECF2"/><path d="M330.779 141.613a156.392 156.392 0 0 0-21.804 21.652 156.915 156.915 0 0 0-24.559 41.04c-.442 1.084 1.317 1.555 1.755.484a156.035 156.035 0 0 1 45.895-61.889c.908-.74-.386-2.021-1.287-1.287z" fill="#fff"/><path d="M111.383 203.503c6.084-5.141 9.78-13.262 8.811-21.168-.969-7.907-6.972-15.175-14.759-16.854-7.786-1.679-16.663 2.969-19.028 10.575-1.301-14.665-2.801-29.944-10.598-42.432-7.06-11.308-19.287-19.399-32.539-20.847-13.252-1.447-27.204 4.02-35.469 14.479-8.264 10.46-10.288 25.666-4.5 37.674 4.265 8.846 12.12 15.43 20.352 20.786 26.26 17.087 58.835 24.214 89.831 19.652" fill="#E9ECF2"/><path d="M20.906 117.1a214.863 214.863 0 0 1 29.948 29.739 217.934 217.934 0 0 1 23.618 34.954 217.102 217.102 0 0 1 10.114 21.415c.607 1.488-1.81 2.136-2.41.664a213.324 213.324 0 0 0-19.491-36.877 214.677 214.677 0 0 0-26.14-32.293 214.128 214.128 0 0 0-17.407-15.834c-1.247-1.017.53-2.776 1.768-1.768z" fill="#fff"/><path d="M248.364 206.407H103.203V57.467C103.203 25.78 128.983 0 160.671 0h30.226c31.687 0 57.467 25.78 57.467 57.468v148.939z" fill="#E9ECF2"/><path d="M218.139 206.407H103.203V57.467a57.026 57.026 0 0 1 11.774-34.848 57.442 57.442 0 0 1 12.231-11.872 56.6 56.6 0 0 1 .793-.566 57.35 57.35 0 0 1 12.517-6.545c.262-.1.53-.2.798-.296A57.276 57.276 0 0 1 153.687.423c.262-.036.531-.064.799-.092 4.112-.44 8.259-.44 12.371 0a57.277 57.277 0 0 1 13.17 3.01c.267.095.535.195.798.295a57.205 57.205 0 0 1 13.169 7.007 58.067 58.067 0 0 1 7.312 6.19 57.471 57.471 0 0 1 5.06 5.787 57.02 57.02 0 0 1 11.773 34.847v148.94z" fill="#ABB2C4"/><path d="M208.793 139.792a6.363 6.363 0 1 0 0-12.726 6.363 6.363 0 0 0 0 12.726z" fill="url(#paint0_linear_3678_10426)"/><path d="M236.473 201.946h-4.876l-2.32-18.806h7.197l-.001 18.806z" fill="#FFB8B8"/><path d="M228.114 200.553h9.403v5.92h-15.324a5.928 5.928 0 0 1 3.655-5.47 5.932 5.932 0 0 1 2.266-.45z" fill="#13172B"/><path d="M260.732 201.946h-4.875l-2.32-18.806h7.196l-.001 18.806z" fill="#FFB8B8"/><path d="M252.374 200.553h9.403v5.92h-15.324a5.91 5.91 0 0 1 1.734-4.186 5.928 5.928 0 0 1 4.187-1.734z" fill="#13172B"/><path d="M212.013 134.689a4.279 4.279 0 0 1 .307-5.197 4.267 4.267 0 0 1 1.487-1.103l16.575-45.683 8.156 4.45-18.925 43.657a4.297 4.297 0 0 1-5.112 5.644 4.299 4.299 0 0 1-2.488-1.768zm46.229 8.584a4.266 4.266 0 0 1-2.081-2.956 4.28 4.28 0 0 1 .93-3.493l-5.134-48.325 9.281.425 2.134 47.533a4.298 4.298 0 0 1 .462 5.687 4.295 4.295 0 0 1-5.592 1.129zm-14.807-69.029c5.395 0 9.768-4.373 9.768-9.768 0-5.394-4.373-9.767-9.768-9.767-5.395 0-9.768 4.373-9.768 9.767 0 5.395 4.373 9.768 9.768 9.768z" fill="#FFB8B8"/><path fill-rule="evenodd" clip-rule="evenodd" d="M258.18 132.283h-29.449l.035-.229c.037-.235 2.484-16.263 2.793-29.921l-10.43-2.116 6.214-14.727a5.567 5.567 0 0 1 4.488-4.09 4.67 4.67 0 0 1 .766-.458c5.377-2.532 15.61-5.64 24.379 1.543 2.223.54 4.096 2.57 4.565 5.246l2.996 17.072-4.343 1.022-2.014 26.658z" fill="url(#paint1_linear_3678_10426)"/><path d="M257.2 130.095c4.738 18.047 5.255 40.991 3.977 66.019l-6.364-.796-11.533-47.724-6.363 48.52-7.159-.398c-2.138-26.26-4.221-48.804-.795-63.632l28.237-1.989zm-7.328-58.07c-1.823 1.941-5.207.9-5.444-1.753a3.12 3.12 0 0 1 .004-.618c.122-1.175.801-2.241.638-3.482a1.81 1.81 0 0 0-.334-.854c-1.452-1.945-4.861.87-6.231-.89-.84-1.08.147-2.78-.497-3.986-.851-1.592-3.372-.807-4.953-1.679-1.759-.97-1.654-3.669-.496-5.31 1.412-2.002 3.888-3.07 6.333-3.224 2.444-.154 4.873.507 7.155 1.396 2.594 1.011 5.165 2.408 6.761 4.688 1.941 2.773 2.128 6.502 1.157 9.745-.59 1.972-2.605 4.382-4.093 5.967zm84.19 134.638H40.442a.475.475 0 0 1-.335-.808.47.47 0 0 1 .334-.139h293.621a.472.472 0 0 1 0 .947z" fill="#13172B"/><path d="M186.522 163.256h-51.701a2.567 2.567 0 0 1-2.585-2.551v-115.4a2.569 2.569 0 0 1 2.585-2.552h51.701a2.572 2.572 0 0 1 2.585 2.551v115.401a2.572 2.572 0 0 1-2.585 2.551z" fill="#fff"/><path d="M189.107 80.093h-56.871v.795h56.871v-.795zm.199 45.382h-56.871v.795h56.871v-.795z" fill="#ABB2C4"/><path d="M150.927 42.753h-.795v120.901h.795V42.753zm19.886 0h-.796v120.901h.796V42.753z" fill="#ABB2C4"/></g><defs><linearGradient id="paint0_linear_3678_10426" x1="215.156" y1="127.065" x2="202.43" y2="139.792" gradientUnits="userSpaceOnUse"><stop stop-color="#F1592A"/><stop offset="1" stop-color="#DD2955"/></linearGradient><linearGradient id="paint1_linear_3678_10426" x1="264.537" y1="77.848" x2="211.467" y2="120.167" gradientUnits="userSpaceOnUse"><stop stop-color="#F1592A"/><stop offset="1" stop-color="#DD2955"/></linearGradient><clipPath id="clip0_3678_10426"><path fill="#fff" d="M0 0H346V206.86H0z"/></clipPath></defs></svg>