<svg width="263" height="230" fill="none" xmlns="http://www.w3.org/2000/svg"><g clip-path="url(#clip0_3680_12757)"><path d="M131.824 103a51.5 51.5 0 1 1 51.5-51.5 51.555 51.555 0 0 1-51.5 51.5zm0-102.189A50.69 50.69 0 1 0 182.513 51.5 50.744 50.744 0 0 0 131.824.81z" fill="#D4D9E4"/><path d="M139.99 129h-15.979a2.96 2.96 0 0 1-2.093-5.052 2.96 2.96 0 0 1 2.093-.866h15.979a2.957 2.957 0 0 1 2.092 5.051 2.958 2.958 0 0 1-2.092.867z" fill="url(#paint0_linear_3680_12757)"/><path d="M185.412 116.597H78.59a3.598 3.598 0 0 1-3.59-3.591V81.16a3.594 3.594 0 0 1 3.59-3.59h106.822a3.593 3.593 0 0 1 3.59 3.59v31.846a3.595 3.595 0 0 1-3.59 3.591z" fill="#D4D9E4"/><path d="M175.032 114.175h-94.02a3.593 3.593 0 0 1-3.59-3.59V83.584a3.594 3.594 0 0 1 3.59-3.59H182.99a3.593 3.593 0 0 1 3.59 3.59v19.044a11.558 11.558 0 0 1-11.548 11.547z" fill="#fff"/><path d="M142.601 89.596H99.667a.926.926 0 0 1 0-1.851H142.6a.927.927 0 0 1 0 1.851z" fill="url(#paint1_linear_3680_12757)"/><path d="M164.335 93.383H99.667a.926.926 0 0 1 0-1.851h64.668a.927.927 0 0 1 0 1.852zm0 4.347H99.667a.927.927 0 1 1 0-1.852h64.668a.925.925 0 0 1 0 1.852zm0 4.347H99.667a.938.938 0 0 1-.656-.271.93.93 0 0 1-.272-.655.929.929 0 0 1 .573-.856.938.938 0 0 1 .355-.07h64.668a.925.925 0 0 1 0 1.852zm0 4.347H99.667a.92.92 0 0 1-.656-.27.934.934 0 0 1-.272-.656.929.929 0 0 1 .573-.856.938.938 0 0 1 .355-.07h64.668a.93.93 0 0 1 .924.926.927.927 0 0 1-.924.926zm-22.386-36.27h-19.583a3.63 3.63 0 0 1-3.627-3.627 3.627 3.627 0 0 1 3.627-3.627h19.583a3.625 3.625 0 1 1 0 7.253z" fill="#D4D9E4"/><path d="M146.311 34.81a14.513 14.513 0 0 1-8.954 13.407 14.51 14.51 0 1 1-5.559-27.913 14.491 14.491 0 0 1 14.513 14.506z" fill="url(#paint2_linear_3680_12757)"/><path d="M132.122 36.913a5.077 5.077 0 1 0 0-10.155 5.077 5.077 0 0 0 0 10.155zm5.442 1.814h-10.88a2.54 2.54 0 0 0-2.538 2.538 38.299 38.299 0 0 0 1.015 6.448 14.493 14.493 0 0 0 14.027-.413c.466-1.984.772-4.002.914-6.035a2.542 2.542 0 0 0-2.538-2.538z" fill="#fff"/><path d="M143.424 221.858a1.03 1.03 0 0 1-.995-.63 1.026 1.026 0 0 1 .251-1.15l.07-.28-.028-.067a2.759 2.759 0 0 0-5.087.019c-.832 2.004-1.892 4.011-2.152 6.13a8.146 8.146 0 0 0 .143 2.806 32.722 32.722 0 0 1-2.976-13.586 31.654 31.654 0 0 1 .646-6.377 33.103 33.103 0 0 1 6.562-14.024 8.812 8.812 0 0 0 3.663-3.8 6.711 6.711 0 0 0 .61-1.836c-.178.024-.672-2.692-.537-2.858-.249-.377-.694-.565-.965-.933-1.35-1.829-3.209-1.51-4.18.977-2.073 1.046-2.093 2.782-.821 4.451.81 1.062.921 2.499 1.631 3.636-.073.094-.149.184-.222.278a33.296 33.296 0 0 0-3.476 5.507 13.846 13.846 0 0 0-.827-6.431c-.791-1.908-2.274-3.515-3.579-5.165-1.569-1.982-4.785-1.117-5.062 1.395l-.007.073c.194.109.383.225.569.348a1.394 1.394 0 0 1-.561 2.535l-.029.005c.069.699.191 1.392.366 2.072-1.676 6.478 1.941 8.838 7.105 8.944.114.058.225.117.339.172a34.02 34.02 0 0 0-1.83 8.611 32.318 32.318 0 0 0 .024 5.206l-.009-.061a8.518 8.518 0 0 0-2.908-4.92c-2.238-1.838-5.4-2.515-7.815-3.993a1.593 1.593 0 0 0-2.313.669 1.609 1.609 0 0 0-.126.951 9.297 9.297 0 0 1 1.619.854 1.394 1.394 0 0 1-.561 2.535l-.029.004-.058.009a13.881 13.881 0 0 0 2.551 3.996c1.048 5.655 5.547 6.192 10.359 4.545h.003a33.967 33.967 0 0 0 2.283 6.664h8.154c.03-.091.056-.184.082-.275a9.274 9.274 0 0 1-2.256-.134c.605-.743 1.21-1.491 1.815-2.233a.8.8 0 0 0 .038-.044c.307-.38.617-.757.924-1.137v-.001a13.609 13.609 0 0 0-.398-3.457z" fill="#E9ECF2"/><path d="M211.923 225.275h-3.914l-1.863-15.099h5.778l-.001 15.099z" fill="#A0616A"/><path d="M212.062 229.359h-12.038v-.152a4.682 4.682 0 0 1 4.685-4.686h.001l2.198-1.668 4.103 1.668 1.051.001v4.837z" fill="#13172B"/><path d="M243.927 220.263L240.42 222l-8.372-12.702 5.177-2.565 6.702 13.53z" fill="#A0616A"/><path d="M245.864 223.861l-10.786 5.344-.068-.136a4.686 4.686 0 0 1 2.118-6.279h.001l1.229-2.471 4.417-.327.942-.466 2.147 4.335zm-45.537-79.747s-4.456 6.212-1.239 16.944c3.216 10.732 1.411 20.327 2.313 22.251.903 1.924 2.721 3.751 1.219 5.21s-2.293 2.645-1.107 3.04c1.187.396 5.14 28.072 5.14 28.072l6.722.395s2.435-12.856-.167-23.231c0 0 .572-7.532-.619-9.745-1.191-2.212-.958-.217-.877-2.994.045-2.008.338-4.003.872-5.94.395-1.581.624-17.521.624-17.521l6.544 21.153c.262.728.361 1.506.288 2.277-.162 1.09-.163 2.718.035 3.288.199.569.42.689.309 1.815-.11 1.127 13.059 24.868 13.059 24.868l6.543-4.39-6.447-20.815a9.76 9.76 0 0 1-1.581-2.372c-.791-1.581-.822-1.668-.411-2.811s.411-3.368.411-4.035c0-.666.41-30.911-4.737-35.36-5.148-4.448-26.894-.099-26.894-.099z" fill="#13172B"/><path d="M224.498 95.996l-1.339-3.813-3.658-3.658-6.748-.806-4.392 2.888-4.068 4.01-6.009 49.876s28.38 10.942 32.099 1.759l-5.885-50.256z" fill="#D4D9E4"/><path d="M226.798 95.996l-3.942-3.942s-1.883 25.193-1.081 26.965c.802 1.772 1.747 1.32.726 2.278-1.021.957-2.118.007-1.021 1.762.647.985.964 2.149.906 3.325 0 0 5.678 35.743 8.971 35.743 3.292 0 5.353-.964 5.237-1.945-.116-.981-2.058-3.425-1.453-4.032.605-.607 2.097-.149.62-1.293-1.478-1.143-2.21-.778-1.844-2.241.366-1.463-2.431-20.432-2.431-20.432l-.272-31.683-4.416-4.505zm-18.438-5.39l-5.106.723-6.068 2.317s2.771 31.27 2.193 32.317c-.579 1.047-1.607.393-.727 1.451.88 1.059 1.671.589.727 1.556-.945.966-2.535-.258-1.557 1.451.978 1.71-3.734 25.247-2.466 26.509 1.269 1.263 4.538.477 4.54-.455a5.405 5.405 0 0 0-1.096-2.762 1.109 1.109 0 0 1 0-1.463 3.584 3.584 0 0 0 1.022-1.846c.075-.715.634-1.593.903-2.251.27-.658 7.053-45.21 7.053-45.21l.582-12.336z" fill="#13172B"/><path d="M186.578 115.228l2.302-1.202c-2.875-2.593-10.007-6.835-10.007-6.835l-12.294-8.288a2.618 2.618 0 0 0-4.507-.549 2.623 2.623 0 0 0 .525 3.671c.369.276.803.45 1.26.504l13.777 12.343 8.944.356z" fill="#A0616A"/><path d="M203.405 106.083l.025-10.108-5.616-2.686-14.163 14.989-1.097-.731h-2.561l-6.219 7.316s3.313 1.962 4.949 1.164c1.636-.799 1.482.349 1.482.349a1.735 1.735 0 0 0 2.092.492c1.354-.542 3.915.921 3.915.921l17.193-11.706z" fill="#13172B"/><path d="M216.863 85.397a8.189 8.189 0 0 0 8.189-8.189 8.189 8.189 0 1 0-8.189 8.19z" fill="#A0616A"/><path d="M226.75 79.287a14.243 14.243 0 0 1-3.064 4.023c-.36.409-.819.718-1.332.898a1.163 1.163 0 0 1-1.382-.55l-.151-.208a4.228 4.228 0 0 0 1.226-.606 1.439 1.439 0 0 0 .593-1.176.887.887 0 0 0-.903-.835c-.512.061-.969.659-1.427.428-.371-.188-.318-.727-.211-1.134.569-2.123.331-5.415-.489-5.53a6.63 6.63 0 0 1-2.291-.937 6.42 6.42 0 0 0-2.297-.924c-.059-.008-.119-.012-.183-.017a5.441 5.441 0 0 0-.227-1.291 6.398 6.398 0 0 1-.405 1.29c-.709.096-1.426.132-2.141.107-.762-.088-2.953 1.688-2.969 1.444a5.494 5.494 0 0 0-.227-1.291 6.338 6.338 0 0 1-.406 1.29c-.008.016-.012.03-.02.048-.233-.568-.3-1.203-.294-.73-.489-3.017.481-4.834 2.958-6.623a3.733 3.733 0 0 1 1.705-.763 1.84 1.84 0 0 1 1.69.624 6.032 6.032 0 0 1 6.111.277c1.782 1.194 3.187 1.987 2.95 4.122 1.689.162 3.115 1.518 3.648 3.126.529 1.61.254 3.406-.462 4.938z" fill="#13172B"/><path d="M237.202 121.958l-5.875-.842c-1.987 3.323-2.693 12.166-2.693 12.166l-5.749 13.666a2.617 2.617 0 0 0-1.141 2.361 2.625 2.625 0 0 0 1.476 2.167 2.62 2.62 0 0 0 3.75-2.56l9.44-15.906.792-11.052z" fill="#A0616A"/><path d="M223.675 101.586l2.49-3.43 5.048 2.347 4.198 16.195s3.066 1.995 2.412 3.402c-.654 1.408-1.002 2.544-.326 3.35.677.807 2.646.866 1.179 2.181-1.467 1.315-.211 4.751-.211 4.751l-1.406 3.137-8.779-.366-4.605-31.567z" fill="#13172B"/><path d="M20.626 151.815a2.706 2.706 0 0 0 .503-3.738 2.584 2.584 0 0 0-.288-.318l3.75-8.657-3.724-3.447-3.854 12.413a2.7 2.7 0 0 0-.058 3.292 2.578 2.578 0 0 0 2.71.938 2.58 2.58 0 0 0 .905-.44c.02-.014.038-.029.056-.043z" fill="#FFB6B6"/><path d="M42.405 95.658s-2.775-5.275-9.213.422c-6.437 5.697-14.044 34.213-13.896 35.285.147 1.072 1.72.648-.27 2.192-1.99 1.543-3.09.156-1.99 1.543 1.1 1.387 3.561 2.856 1.383 3.063-2.18.206 5.808 3.642 5.808 3.642s1.256-.301 1.642-3.2c.216-1.628-.517-2.553.774-2.824 1.291-.272.081-3.216.267-3.679.186-.464 10.497-20.698 10.497-20.698l4.998-15.746z" fill="url(#paint3_linear_3680_12757)"/><path d="M55.078 224.496h4.661l2.218-17.981h-6.88l.001 17.981z" fill="#FFB6B6"/><path d="M54.914 229.359h14.335v-.182a5.582 5.582 0 0 0-5.58-5.579l-2.619-1.987-4.885 1.987h-1.252v5.761z" fill="#13172B"/><path d="M22.403 215.921l3.813 2.681 12.157-13.432-5.629-3.958-10.341 14.709z" fill="#FFB6B6"/><path d="M19.472 219.805L31.2 228.05l.104-.148a5.58 5.58 0 0 0-1.355-7.774l-1-3.131-5.139-1.185-1.023-.72-3.314 4.713zm17.032-84.762l-.387.827c-2.546 5.439-3.197 11.52-2.207 17.443a.989.989 0 0 1-.04.703c-.614.72.35 3.847.9 5.593l.498 3.087s-.824 2.868.428 2.657c1.253-.211-.612 2.848.583 3.614l3.1 19.243-12.933 21.314 4.79 6.946 19.159-24.668.24-22.273 2.873 17.962.24 28.26 8.714-.926 3.192-27.399-3.045-37.89-4.79-16.429-21.315 1.936z" fill="#13172B"/><path d="M42.49 85.711l7.05.336 3.371 5.824a10.423 10.423 0 0 1 6.666 6.072l2.196 5.423-2.498 31.356s-.5 1.897.422 1.62c.921-.277.546 2.1.546 2.1l3.396 13.065-30.883-2.685 1.715-13.843s-2.385.077-.708-1.599c1.676-1.677 2.492-1.143.881-3.125-1.61-1.982-1.85-3.419-1.85-3.419l-.718-9.819-1.185-13.819a13.278 13.278 0 0 1 5.017-11.567l6.583-5.92z" fill="url(#paint4_linear_3680_12757)"/><path d="M46.147 84.094a8.94 8.94 0 1 0 0-17.88 8.94 8.94 0 0 0 0 17.88z" fill="#FFB6B6"/><path d="M42.693 83.362c2.565-.084 2.798-.762 5.364-.846.816-.027 1.78-.14 2.175-.855a1.885 1.885 0 0 0-.095-1.678 15.33 15.33 0 0 1-.79-1.555 2.716 2.716 0 0 1 2.69-3.58c.78.034 1.514.401 2.292.469 1.068.092 3.429-3.434 2.937-4.386-.478-.927-1.441-1.626-1.593-2.659-.099-.675.18-1.346.218-2.027.057-1.01-2.504 1.268-2.035.371 1.15-2.199-9.689-4.925-11.474-2.17-.666 1.03-1.855.959-2.914 1.577-.695.405-2.448 1.803-2.847 2.675a6.783 6.783 0 0 0-.508 2.806c-.016 4.47.665 8.581 4.27 11.223" fill="#13172B"/><path d="M68.072 151.43a2.705 2.705 0 0 1-.279-3.761c.094-.108.196-.209.307-.3l-3.226-8.865 3.923-3.219 3.105 12.621a2.697 2.697 0 0 1-.138 3.289 2.581 2.581 0 0 1-3.639.282l-.053-.047z" fill="#FFB6B6"/><path d="M49.685 94.074s3.085-5.1 9.17.97c6.086 6.072 11.978 34.991 11.766 36.053-.211 1.061-1.757.544.138 2.203 1.894 1.66 3.076.341 1.894 1.66-1.18 1.319-3.725 2.638-1.562 2.974 2.162.336-6.016 3.29-6.016 3.29s-1.236-.376-1.448-3.293c-.119-1.638.669-2.517-.604-2.865-1.273-.348.111-3.215-.047-3.689-.158-.473-9.242-21.287-9.242-21.287l-4.05-16.016z" fill="url(#paint5_linear_3680_12757)"/><path d="M.237 229.565a.428.428 0 0 0 .127.308.443.443 0 0 0 .308.127h261.656a.436.436 0 1 0 0-.871H.672a.434.434 0 0 0-.435.436z" fill="#D4D9E4"/></g><defs><linearGradient id="paint0_linear_3680_12757" x1="142.949" y1="123.082" x2="139.968" y2="134.112" gradientUnits="userSpaceOnUse"><stop stop-color="#F1592A"/><stop offset="1" stop-color="#DD2955"/></linearGradient><linearGradient id="paint1_linear_3680_12757" x1="143.527" y1="87.745" x2="143.374" y2="91.442" gradientUnits="userSpaceOnUse"><stop stop-color="#F1592A"/><stop offset="1" stop-color="#DD2955"/></linearGradient><linearGradient id="paint2_linear_3680_12757" x1="146.311" y1="20.304" x2="117.292" y2="49.323" gradientUnits="userSpaceOnUse"><stop stop-color="#F1592A"/><stop offset="1" stop-color="#DD2955"/></linearGradient><linearGradient id="paint3_linear_3680_12757" x1="42.405" y1="93.434" x2="2.229" y2="114.865" gradientUnits="userSpaceOnUse"><stop stop-color="#F1592A"/><stop offset="1" stop-color="#DD2955"/></linearGradient><linearGradient id="paint4_linear_3680_12757" x1="63.639" y1="85.711" x2="11.1" y2="111.9" gradientUnits="userSpaceOnUse"><stop stop-color="#F1592A"/><stop offset="1" stop-color="#DD2955"/></linearGradient><linearGradient id="paint5_linear_3680_12757" x1="73.126" y1="92.069" x2="34.93" y2="110.285" gradientUnits="userSpaceOnUse"><stop stop-color="#F1592A"/><stop offset="1" stop-color="#DD2955"/></linearGradient><clipPath id="clip0_3680_12757"><path fill="#fff" transform="translate(.237)" d="M0 0H262.527V230H0z"/></clipPath></defs></svg>